<svg width="200" height="200" viewBox="0 0 200 200" fill="#4b60a5" xmlns="http://www.w3.org/2000/svg">
<path d="M137.639 29.0003C114.306 29.0835 95.5556 48.2756 95.5556 71.5725V91.1252H33.3333C25.9722 91.1252 20 97.088 20 104.438V157.688C20 165.037 25.9722 171 33.3333 171H131.111C138.472 171 144.444 165.037 144.444 157.688V104.438C144.444 97.088 138.472 91.1252 131.111 91.1252H117.778V71.4061C117.778 60.4233 126.583 51.2987 137.583 51.1877C148.694 51.0768 157.778 60.0904 157.778 71.1564V93.3439C157.778 97.0326 160.75 100 164.444 100H173.333C177.028 100 180 97.0326 180 93.3439V71.1564C180 47.8596 160.972 28.9171 137.639 29.0003Z" fill="#4b60a5"/>
</svg>
