<svg width="200" height="200" viewBox="0 0 200 200" fill="white" xmlns="http://www.w3.org/2000/svg">
<path d="M147.821 91.125H141.232V71.1562C141.232 47.9148 122.508 29 99.5 29C76.4924 29 57.7679 47.9148 57.7679 71.1562V91.125H51.1786C43.9029 91.125 38 97.0879 38 104.438V157.688C38 165.037 43.9029 171 51.1786 171H147.821C155.097 171 161 165.037 161 157.688V104.438C161 97.0879 155.097 91.125 147.821 91.125ZM119.268 91.125H79.7321V71.1562C79.7321 60.1457 88.6002 51.1875 99.5 51.1875C110.4 51.1875 119.268 60.1457 119.268 71.1562V91.125Z" fill="white"/>
</svg>
